<?xml version="1.0" standalone="no"?>
<svg viewBox="0 0 200 200" xmlns="http://www.w3.org/2000/svg">
  <path fill="#8A3FFC" d="M40.9,-61.3C51.6,-56.8,57.9,-43,55.5,-30.6C53.1,-18.1,41.9,-6.8,42.7,8C43.5,22.8,56.2,41.2,53.3,48.2C50.4,55.1,32,50.6,16.3,55.1C0.5,59.7,-12.5,73.2,-22.9,72.6C-33.4,72.1,-41.4,57.4,-45.8,44.2C-50.2,31,-51,19.2,-57.5,5.3C-64.1,-8.5,-76.4,-24.5,-69,-27.7C-61.6,-30.8,-34.4,-21.1,-19.7,-23.8C-4.9,-26.4,-2.4,-41.5,6.3,-51.3C15.1,-61.2,30.2,-65.8,40.9,-61.3Z" transform="translate(100 100)" />
</svg>
