<?xml version="1.0" standalone="no"?>
<svg viewBox="0 0 200 200" xmlns="http://www.w3.org/2000/svg">
  <path fill="#FF0066" d="M43.3,-68.6C55.1,-59.9,62.7,-46,66.6,-32C70.4,-18.1,70.3,-4,68.5,10C66.7,24,63.2,37.8,54.7,47C46.2,56.2,32.6,60.7,19.6,62.6C6.6,64.5,-6,63.9,-20.6,62.9C-35.2,61.9,-51.8,60.6,-59.1,51.5C-66.5,42.5,-64.6,25.8,-63.1,11.4C-61.6,-3,-60.5,-15.1,-54.7,-23.7C-48.8,-32.4,-38.1,-37.5,-28.2,-47.1C-18.3,-56.7,-9.2,-70.7,3.3,-75.8C15.8,-81,31.6,-77.4,43.3,-68.6Z" transform="translate(100 100)" />
</svg>
