<?xml version="1.0" standalone="no"?>
<svg viewBox="0 0 200 200" xmlns="http://www.w3.org/2000/svg">
  <path fill="#9EF0F0" d="M31,-47.5C44.3,-39.6,62.2,-38.1,68.1,-29.8C73.9,-21.4,67.7,-6.3,63.6,7.8C59.4,21.9,57.4,34.9,50.6,45.2C43.8,55.6,32.3,63.2,22.6,57C12.8,50.8,4.8,30.8,-9.1,28C-23,25.3,-42.8,39.8,-44.9,38.4C-47,36.9,-31.4,19.6,-31,5.9C-30.7,-7.7,-45.7,-17.7,-49.4,-27.9C-53.1,-38.2,-45.6,-48.7,-35.5,-58.1C-25.4,-67.4,-12.7,-75.6,-1.9,-72.6C8.8,-69.6,17.6,-55.3,31,-47.5Z" transform="translate(100 100)" />
</svg>
